<svg t="1677151335500" class="icon" viewBox="0 0 1024 1024" version="1.1" xmlns="http://www.w3.org/2000/svg" p-id="1360" width="20" height="20"><path d="M512 21.344c265.92 0 481.504 219.68 481.504 490.656s-215.584 490.656-481.504 490.656-481.504-219.68-481.504-490.656 215.584-490.656 481.504-490.656l0 0 0 0zM407.296 430.432c23.008-2.336 55.68 7.04 73.632 15.008 10.592 4.704 20.704 9.856 29.44 15.488 15.648 10.336 24.416 17.376 36.384 31.456 25.344 29.536 42.336 72.224 45.6 113.024 1.824 24.416-6.464 55.36-14.688 75.072-17.12 42.656-44.704 73.248-86.56 94.304-20.224 9.824-44.16 17.344-69.952 19.2-38.176 3.264-87.456-15.904-117.824-39.872-39.552-31.424-63.968-82.08-68.576-135.552-2.784-33.344 12.896-77.408 30.368-105.056 2.784-4.704 5.984-8.928 9.216-13.12 2.752-4.224 6.88-9.376 10.144-12.672 16.096-16.416 30.368-27.2 52-37.984 21.984-10.816 43.616-16.896 70.784-19.232l0 0 0 0zM610.72 353.056c-1.824 3.296-8.736 9.856-12 12.672-4.576 4.704-32.672 34.208-35.456 35.648-3.68-1.888-8.704-6.112-12.896-8.928-28.544-18.752-58.912-30.496-92.96-35.648l-18.88-2.784c-3.232 0.928-26.208 0-31.776 0-10.112 0-20.224 0.448-30.368 1.888-18.4 2.336-35.424 6.56-51.552 12.192-33.12 12.192-58.464 30.016-79.168 49.248-51.104 47.392-78.688 95.68-85.152 172.128-1.824 43.616 0 76.896 14.24 115.392 9.248 26.208 28.576 60 48.352 80.224 25.344 24.832 35.424 37.952 70.88 57.248 14.272 7.968 28.544 13.664 45.088 18.752 8.736 2.88 17.472 4.768 26.208 6.112 5.984 0.928 24.864 2.304 28.064 3.232l42.816 0c3.68-1.344 14.72-1.888 19.776-2.304 5.984-0.928 12-1.888 17.984-3.232 11.04-2.272 23.008-6.08 33.12-10.24 24.864-9.888 59.84-30.56 78.24-50.656 3.68-3.808 7.392-7.552 11.072-11.232 10.592-10.784 20.736-22.016 29.472-35.168 33.6-52.032 46.016-105.504 40.48-174.912-2.272-26.24-8.288-48.8-17.056-70.368-3.68-10.304-8.736-20.16-13.792-29.088-2.784-4.704-5.536-9.376-8.736-13.6-2.24-3.744-6.816-9.856-8.288-13.152 7.776-8.928 17.44-17.376 26.208-26.272l52.512-53.472c4.64-4.704 8.704-8.448 13.344-13.152 2.752-3.296 9.664-11.264 12.896-12.672 0 11.744-0.928 92.896 0.928 98.016 1.344 4.224 8.736 10.784 11.104 13.6 6.464 6.112 9.216 4.704 19.808 4.704 25.76 0 23.488 2.336 37.28-11.744 5.952-6.112 4.608-8.896 4.608-19.68l0.928-167.904 0-28.576c-5.088-8.928-2.784-5.664-11.52-14.56-6.464-6.56-9.632-5.152-20.256-5.152l-126.592 0c-4.576 0-21.152 0.48-23.904-0.48l-40.48 0c-4.128 2.336-4.608 1.888-8.288 5.152-12.416 12.672-12.416 11.264-12.416 27.2 0 21.568-3.2 24.384 13.792 39.392 6.464 5.632 12.416 4.224 22.048 4.224l26.208 0c17.056 0 34.496 0 51.584 0.448-1.376 2.816-23.936 24.864-28.576 29.088l-21.664 22.048c-1.344 1.408-2.272 2.336-3.68 3.744-0.928 0.48-1.376 1.408-1.856 1.888-1.28 0.736-0.352 0.256-1.696 0.736l0 0 0 0z" fill="#e44191" p-id="1361"></path></svg>