<svg t="1677295189354" class="icon" viewBox="0 0 1024 1024" version="1.1" xmlns="http://www.w3.org/2000/svg" p-id="2306" width="81" height="81"><path d="M0 0m204.8 0l614.4 0q204.8 0 204.8 204.8l0 614.4q0 204.8-204.8 204.8l-614.4 0q-204.8 0-204.8-204.8l0-614.4q0-204.8 204.8-204.8Z" fill="#FFBB8D" p-id="2307"></path><path d="M819.2 0H534.272A756.48 756.48 0 0 0 0 483.584V819.2a204.8 204.8 0 0 0 204.8 204.8h614.4a204.8 204.8 0 0 0 204.8-204.8V204.8a204.8 204.8 0 0 0-204.8-204.8z" fill="#FFB583" p-id="2308"></path><path d="M819.2 0h-3.84a755.2 755.2 0 0 0-539.392 1024H819.2a204.8 204.8 0 0 0 204.8-204.8V204.8a204.8 204.8 0 0 0-204.8-204.8z" fill="#FFAF78" p-id="2309"></path><path d="M497.152 721.152A752.384 752.384 0 0 0 560.384 1024H819.2a204.8 204.8 0 0 0 204.8-204.8V204.8a204.8 204.8 0 0 0-89.088-168.96 755.2 755.2 0 0 0-437.76 685.312z" fill="#FFA96E" p-id="2310"></path><path d="M338.688 166.4m166.4 0l13.824 0q166.4 0 166.4 166.4l0 67.328q0 166.4-166.4 166.4l-13.824 0q-166.4 0-166.4-166.4l0-67.328q0-166.4 166.4-166.4Z" fill="#FFFFFF" p-id="2311"></path><path d="M451.072 593.152h121.6a179.2 179.2 0 0 1 179.2 179.2v8.448a25.6 25.6 0 0 1-25.6 25.6H297.472a25.6 25.6 0 0 1-25.6-25.6v-8.448a179.2 179.2 0 0 1 179.2-179.2z" fill="#FFEADC" p-id="2312"></path><path d="M688.128 780.8v-8.448a179.2 179.2 0 0 0-179.2-179.2h-57.6a179.2 179.2 0 0 0-179.2 179.2v8.448a25.6 25.6 0 0 0 25.6 25.6h364.8a25.6 25.6 0 0 0 25.6-25.6z" fill="#FFFFFF" p-id="2313"></path><path d="M393.216 333.056m19.2 0l1.536 0q19.2 0 19.2 19.2l0 28.16q0 19.2-19.2 19.2l-1.536 0q-19.2 0-19.2-19.2l0-28.16q0-19.2 19.2-19.2Z" fill="#FFBB8D" p-id="2314"></path><path d="M475.904 333.056m19.2 0l1.536 0q19.2 0 19.2 19.2l0 28.16q0 19.2-19.2 19.2l-1.536 0q-19.2 0-19.2-19.2l0-28.16q0-19.2 19.2-19.2Z" fill="#FFBB8D" p-id="2315"></path></svg>