<svg t="1677566663302" class="icon" viewBox="0 0 1024 1024" version="1.1" xmlns="http://www.w3.org/2000/svg" p-id="5413" width="25" height="25"><path d="M518.1 813.4c-37.1 0-128.4-108-160.5-149.7-46-59.7-123.1-173.3-123.1-263.1 0-156 127.2-283 283.5-283s283.5 127 283.5 283c0 89.8-77.1 203.4-123.1 263.1-31.9 41.7-123.2 149.7-160.3 149.7z m0-656.4C383.5 157 274 266.3 274 400.7c0 128.7 203.5 353.5 244.2 372.7 40.7-19.2 244.2-244 244.2-372.7C762.3 266.3 652.8 157 518.1 157z" fill="#1296db" p-id="5414"></path><path d="M518.1 520.1c-71.2 0-129.1-57.8-129.1-128.9 0-71.1 57.9-128.9 129.1-128.9 71.2 0 129.1 57.8 129.1 128.9 0 71-57.9 128.9-129.1 128.9z m0-218.4c-49.5 0-89.7 40.1-89.7 89.5 0 49.3 40.2 89.5 89.7 89.5s89.7-40.1 89.7-89.5-40.2-89.5-89.7-89.5z" fill="#1296db" p-id="5415"></path><path d="M662.7 906.3H373.5c-10.9 0-19.7-8.8-19.7-19.7s8.8-19.7 19.7-19.7h289.2c10.9 0 19.7 8.8 19.7 19.7s-8.8 19.7-19.7 19.7z" fill="#1296db" p-id="5416"></path></svg>