<svg t="1677151403178" class="icon" viewBox="0 0 1024 1024" version="1.1" xmlns="http://www.w3.org/2000/svg" p-id="2148" width="20" height="20"><path d="M512 21.344c265.92 0 481.504 219.68 481.504 490.656s-215.584 490.656-481.504 490.656c-265.952 0-481.504-219.68-481.504-490.656s215.552-490.656 481.504-490.656l0 0 0 0zM597.632 231.552c35.008-4.704 76.416 10.304 105.408 28.128 28.064 16.896 48.352 39.424 63.968 71.296 11.072 22.048 17.952 45.024 20.704 70.368 5.056 50.208-23.936 107.392-46.944 133.216-15.2 16.864-30.4 28.128-51.104 38.912-19.808 10.304-43.264 18.272-69.024 20.672-40.48 4.192-86.56-13.632-118.752-37.536-13.344-9.376-23.488-19.712-33.6-33.792-20.256-28.608-33.6-60.48-37.28-98.464-5.024-46.912 18.88-99.936 46.048-133.216 11.968-14.048 31.296-28.128 51.104-38.944 20.704-10.784 42.816-17.376 69.472-20.64l0 0 0 0zM224.8 563.616c0 6.624-0.448 17.344 0.448 23.488 0.48 7.968 4.64 10.784 7.84 14.592l44.64 45.92c4.128 4.192 7.328 7.968 11.488 11.712 4.128 4.256 9.664 8.448 11.488 11.808-1.824 3.232-15.2 16.448-19.328 20.128l-49.696 50.624c-1.824 1.888-2.784 2.912-4.128 5.152-2.304 2.848-1.824 4.704-3.2 7.04l0 26.272c6.432 10.784-0.928 2.816 12.416 16.448 6.432 6.56 9.216 7.968 21.664 7.968 23.904 0 19.328 0.448 38.656-19.232 9.216-8.864 16.576-16.864 28.992-28.992 5.056-5.152 9.216-9.344 14.272-14.624 4.608-5.088 10.144-10.24 14.272-15.008l39.136 39.872c4.128 4.256 30.368 31.904 34.528 34.72 2.752 2.336 4.608 2.336 6.88 3.808l26.208 0 5.088-2.336c1.824-0.928 3.2-2.272 4.128-2.816 11.968-10.784 15.2-14.624 15.2-29.536 0-25.344 0-19.776-19.328-39.872-14.752-15.52-38.208-40.8-53.408-55.392-0.928-0.928-0.928-0.928-1.856-1.888-1.824-1.376-0.928 0-1.824-2.272 2.304-3.232 8.288-8.928 11.488-12.192 4.128-4.192 7.84-8 12-12.704l24.384-23.904c8.288 5.152 15.648 11.168 25.344 16.864 29.92 16.864 61.696 27.68 97.568 30.944 65.344 5.632 118.304-5.696 171.712-41.312 20.704-14.08 49.696-43.104 64.864-64.288 46.496-64.736 43.232-121.024 46.048-128.064l0-43.136c-0.928-3.264-1.824-21.6-2.784-27.2-8.352-54.88-34.08-98.976-69.92-136.032-36.832-37.984-79.168-63.328-133.472-72.224-4.64-0.928-23.008-2.336-25.792-3.296l-44.64 0c-4.128 1.888-14.72 1.888-19.872 2.336-37.28 5.632-76.896 21.6-105.376 44.064-6.464 4.704-18.4 14.08-23.52 20.16-3.2 3.776-6.88 7.04-10.592 10.784-19.296 19.712-32.224 36.576-45.088 61.92-31.744 61.44-35.424 148.704-9.184 217.184 11.04 29.536 29.472 52.96 30.368 55.328l-47.84 48.768c-3.2-1.856-11.04-11.712-14.72-14.528-5.984-5.152-36.832-37.536-43.264-44.576-18.88-19.2-14.272-18.272-40.032-18.272-12.896 0-14.304 2.816-20.736 8.928-5.024 5.152-8.736 7.488-11.488 16.864l0 0 0 0z" fill="#1296db" p-id="2149"></path></svg>